<?xml version="1.0" encoding="UTF-8"?>
<svg width="179px" height="24px" viewBox="0 0 179 24" version="1.1" xmlns="http://www.w3.org/2000/svg" xmlns:xlink="http://www.w3.org/1999/xlink">
    <!-- Generator: sketchtool 44.1 (41455) - http://www.bohemiancoding.com/sketch -->
    <title>E1908BCD-0FFC-4BA3-924B-00F776D53D71</title>
    <desc>Created with sketchtool.</desc>
    <defs></defs>
    <g id="Symbols" stroke="none" stroke-width="1" fill="none" fill-rule="evenodd">
        <g id="Header-/-Desktop-HD" transform="translate(-120.000000, -20.000000)" fill-rule="nonzero" fill="#000000">
            <g id="compass-logo" transform="translate(120.000000, 20.000000)">
                <path d="M38.9483077,3.28615385 C43.7446154,3.28615385 47.6473846,7.19630769 47.6473846,12 C47.6473846,16.8036923 43.7427692,20.7138462 38.9464615,20.7138462 C34.1501538,20.7138462 30.2492308,16.8 30.2492308,12 C30.2492308,7.2 34.152,3.28615385 38.9483077,3.28615385 M38.9483077,0.0258461538 C32.3446154,0.0258461538 26.9907692,5.38707692 26.9907692,12 C26.9907692,18.6129231 32.3446154,23.9741538 38.9483077,23.9741538 C45.552,23.9741538 50.9058462,18.6129231 50.9058462,12 C50.9058462,5.38707692 45.552,0.0258461538 38.9483077,0.0258461538 M83.7969231,0 C83.6806154,0 83.5827692,0.0627692308 83.5236923,0.153230769 L71.2061538,16.824 L58.8867692,0.153230769 C58.8313846,0.0609230769 58.7298462,0 58.6153846,0 C58.4307692,0 58.2830769,0.144 58.2830769,0.321230769 L58.2830769,22.536 L61.5433846,22.536 L61.5433846,9.41538462 L71.0141538,22.1409231 C71.0603077,22.1963077 71.1286154,22.2332308 71.2061538,22.2332308 C71.2836923,22.2332308 71.3501538,22.1963077 71.3963077,22.1409231 L80.8670769,9.41723077 L80.8670769,22.5378462 L84.1255385,22.5378462 L84.1255385,0.321230769 C84.1255385,0.144 83.9778462,0 83.7969231,0 M96,15.1901538 L96,23.2689231 L92.7433846,23.2689231 L92.7433846,0.731076923" id="Shape"></path>
                <path d="M103.596923,0.732923077 L92.7415385,0.732923077 L92.7415385,23.2689231 L96,23.2689231 L96,15.1883077 L103.596923,15.1883077 C107.584615,15.1883077 110.815385,11.952 110.815385,7.95876923 C110.815385,3.96738462 107.584615,0.731076923 103.596923,0.731076923 L103.596923,0.732923077 Z M103.596923,11.928 L96,11.928 L96,3.99692308 L103.596923,3.99692308 C105.780923,3.99692308 107.558769,5.77661538 107.558769,7.96246154 C107.558769,10.1501538 105.782769,11.9316923 103.598769,11.9316923 L103.596923,11.928 Z M18.9193846,17.3243077 C17.3261538,19.3846154 14.8356923,20.7138462 12.0406154,20.7138462 C7.24061538,20.7138462 3.34153846,16.8036923 3.34153846,12 C3.34153846,7.19630769 7.24246154,3.28615385 12.0406154,3.28615385 C14.8356923,3.28615385 17.3261538,4.61538462 18.9193846,6.67569231 L21.2584615,4.37353846 C19.0652308,1.71692308 15.7476923,0.024 12.0406154,0.024 C5.43692308,0.0258461538 0.0830769231,5.38707692 0.0830769231,12 C0.0830769231,18.6129231 5.43692308,23.9741538 12.0406154,23.9741538 C15.7513846,23.9741538 19.0652308,22.2812308 21.2584615,19.6264615 L18.9193846,17.3261538 L18.9193846,17.3243077 Z M148.242462,23.6676923 C144.476308,23.6676923 141.841846,21.5815385 140.298462,19.8276923 L142.595077,17.5864615 C143.167385,18.3323077 145.102154,20.4812308 148.240615,20.4812308 C151.176,20.4812308 153.225231,19.0043077 153.225231,16.8849231 C153.225231,15.0756923 151.993846,13.8572308 149.462769,13.1612308 L146.717538,12.5335385 C140.846769,11.0935385 140.846769,7.57292308 140.846769,6.41538462 C140.846769,2.77476923 143.782154,0.328615385 148.150154,0.328615385 C151.017231,0.328615385 153.457846,1.41784615 155.608615,3.67015385 L153.313846,5.91692308 C152.723077,5.30030769 150.793846,3.51692308 148.148308,3.51692308 C145.574769,3.51692308 144.099692,4.56923077 144.099692,6.41538462 C144.099692,6.96369231 144.308308,8.79692308 146.987077,9.37476923 L149.486769,9.93784615 C154.059692,11.0141538 156.48,13.4141538 156.48,16.8793846 C156.48,20.7489231 152.935385,23.6658462 148.238769,23.6658462 L148.242462,23.6676923 Z M170.174769,23.6676923 C166.408615,23.6676923 163.776,21.5815385 162.230769,19.8276923 L164.527385,17.5864615 C165.099692,18.3323077 167.034462,20.4812308 170.172923,20.4812308 C173.108308,20.4812308 175.157538,19.0043077 175.157538,16.8849231 C175.157538,15.0756923 173.928,13.8572308 171.395077,13.1612308 L168.649846,12.5335385 C162.779077,11.0935385 162.779077,7.57292308 162.779077,6.41538462 C162.779077,2.77476923 165.714462,0.328615385 170.082462,0.328615385 C172.949538,0.328615385 175.390154,1.41784615 177.540923,3.67015385 L175.246154,5.91692308 C174.655385,5.30030769 172.726154,3.51692308 170.080615,3.51692308 C167.507077,3.51692308 166.033846,4.56923077 166.033846,6.41538462 C166.033846,6.96369231 166.240615,8.79692308 168.921231,9.37476923 L171.417231,9.93784615 C175.992,11.0141538 178.410462,13.4141538 178.410462,16.8793846 C178.410462,20.7489231 174.865846,23.6658462 170.169231,23.6658462 L170.174769,23.6676923 Z M44.0824615,9.16430769 L36.1163077,17.1396923 L33.8141538,14.8356923 L41.7784615,6.86030769 L44.0824615,9.16430769 L44.0824615,9.16430769 Z M124.384615,0.72 C124.332923,0.609230769 124.218462,0.535384615 124.089231,0.535384615 C123.954462,0.535384615 123.841846,0.609230769 123.790154,0.72 L111.913846,23.2707692 L115.598769,23.2707692 L118.639385,17.4923077 L129.535385,17.4923077 L132.577846,23.2707692 L136.260923,23.2707692 L124.384615,0.72 Z M120.36,14.2301538 L124.089231,7.14646154 L127.818462,14.232 L120.36,14.232 L120.36,14.2301538 Z" id="Shape"></path>
            </g>
        </g>
    </g>
</svg>